<svg xmlns="http://www.w3.org/2000/svg" xmlns:xlink="http://www.w3.org/1999/xlink" version="1.1" width="143" height="271.6585693359375" viewBox="-0.5 -0.5 143 271.6585693359375"><g><g data-paper-data="{&quot;isPaintingLayer&quot;:true}" fill-rule="nonzero" stroke-linecap="butt" stroke-linejoin="miter" stroke-miterlimit="10" stroke-dasharray="" stroke-dashoffset="0" font-family="none" font-weight="none" font-size="none" text-anchor="none" style="mix-blend-mode: normal"><g id="Group"><path d="M 101.9 189.8667 C 101.9 189.8667 105.2 213.8667 90.8 238.3667 C 83.6 250.6667 83 257.7667 84.7 260.0667 C 86.4 262.4667 91.8 265.6667 90.5 267.1667 C 89.2 268.6667 70.8 269.4667 66.6 267.6667 C 64.9 266.8667 59.4 240.2667 60.4 228.3667 C 61.5 216.5667 63.2 212.5667 62.1 203.9667 C 61 195.3667 55.3 180.9667 58.2 174.1667 C 61.1 167.3667 69.9 156.1667 85.3 161.6667 C 100.7 167.1667 102.1 183.9667 101.9 189.8667 Z " id="Shape" fill="#8d674a" stroke-width="1" stroke="none"/><path d="M 82.9 267.2667 C 82.7 266.8667 82.3 266.4667 82 265.9667 C 81.7 265.4667 81.3 264.9667 81 264.6667 C 80.9 264.5667 80.8 264.3667 80.7 264.2667 C 80.6 264.1667 80.6 264.0667 80.6 264.0667 C 80.6 264.0667 80.9 264.1667 81.3 264.3667 C 81.7 264.6667 82.2 265.0667 82.6 265.5667 C 82.9 266.0667 83.2 266.5667 83.3 267.0667 C 83.4 267.5667 83.4 267.8667 83.4 267.8667 C 83.4 267.8667 83.3 267.6667 82.9 267.2667 Z " id="Shape" fill="#59402f" stroke-width="1" stroke="none"/><path d="M 88.3 266.8667 C 88 266.4667 87.6 265.9667 87.1 265.4667 C 86.7 264.9667 86.2 264.4667 85.8 264.1667 C 85.6 263.9667 85.4 263.8667 85.3 263.7667 C 85.2 263.6667 85.1 263.5667 85.1 263.5667 C 85.1 263.5667 85.1 263.6667 85.3 263.6667 C 85.4 263.6667 85.7 263.7667 85.9 263.8667 C 86.1 263.9667 86.4 264.1667 86.7 264.3667 C 87 264.5667 87.3 264.7667 87.5 265.0667 C 87.9 265.6667 88.3 266.2667 88.5 266.7667 C 88.7 267.2667 88.7 267.6667 88.7 267.6667 C 88.7 267.6667 88.4 267.3667 88.3 266.8667 Z " id="Shape" fill="#59402f" stroke-width="1" stroke="none"/><path d="M 80.8 267.8667 C 80.3 267.2667 79.5 266.1667 80.6 266.1667 C 81.7 266.0667 82.6 268.5667 82.6 269.1667 C 82.6 269.5667 81.3 268.5667 80.8 267.8667 Z " id="Shape" fill="#665a52" stroke-width="1" stroke="none"/><path d="M 85.9 267.2667 C 85.4 266.6667 84.6 265.5667 85.7 265.5667 C 86.8 265.4667 87.7 267.9667 87.7 268.5667 C 87.7 268.8667 86.5 267.8667 85.9 267.2667 Z " id="Shape" fill="#665a52" stroke-width="1" stroke="none"/><path d="M 89.1 266.9667 C 88.6 266.3667 87.8 265.2667 88.9 265.2667 C 90 265.1667 90.9 267.6667 90.9 268.2667 C 90.9 268.5667 89.7 267.5667 89.1 266.9667 Z " id="Shape" fill="#665a52" stroke-width="1" stroke="none"/><g id="Shape"><path d="M 61.9 238.6667 C 57.2 236.2667 58.9 229.7667 58.9 229.7667 L 57 233.1667 C 55.7 229.2667 58 222.6667 58 222.6667 L 55.5 224.1667 C 55.5 219.9667 59.1 217.3667 59.1 217.3667 C 57.8 219.1667 55.4 217.9667 55.4 217.9667 C 57.6 217.6667 62.6 206.7667 62.6 206.7667 " id="ID0.7656900864094496" fill="#8d674a" stroke-width="1" stroke="none"/><path d="M 56.1 217.5667 C 56.3 217.3667 56.6 216.9667 56.9 216.5667 C 57.6 215.7667 58.3 214.5667 59 213.3667 C 59.8 212.1667 60.4 210.9667 61 210.0667 C 61.5 209.1667 61.9 208.5667 61.9 208.5667 C 61.9 208.5667 61.7 209.2667 61.3 210.2667 C 61 210.7667 60.8 211.3667 60.5 211.9667 C 60.2 212.5667 59.9 213.1667 59.5 213.7667 C 58.7 214.9667 57.9 216.1667 57.1 216.8667 C 56.7 217.2667 56.4 217.4667 56.1 217.6667 C 55.8 217.8667 55.6 217.8667 55.6 217.8667 C 55.6 217.8667 55.7 217.7667 56.1 217.5667 Z " id="ID0.43892181292176247" fill="#59402f" stroke-width="1" stroke="none"/><path d="M 55.5 222.8667 C 55.5 222.5667 55.5 222.1667 55.6 221.7667 C 55.7 221.3667 55.8 220.9667 56 220.5667 C 56.2 220.1667 56.4 219.7667 56.6 219.4667 C 56.9 219.1667 57.2 218.8667 57.4 218.6667 C 57.6 218.4667 57.8 218.3667 58 218.2667 C 58.2 218.1667 58.3 218.1667 58.3 218.1667 C 58.3 218.1667 58.2 218.2667 58.1 218.3667 C 57.9 218.4667 57.8 218.7667 57.6 218.9667 C 57.5 219.2667 57.3 219.5667 57.1 219.8667 C 56.9 220.2667 56.8 220.5667 56.6 220.9667 C 56.3 221.6667 56.1 222.4667 55.9 223.0667 C 55.7 223.6667 55.6 224.0667 55.6 224.0667 C 55.6 224.0667 55.5 223.6667 55.5 222.8667 Z " id="ID0.19974732538685203" fill="#59402f" stroke-width="1" stroke="none"/><path d="M 56.7 232.4667 C 56.6 232.2667 56.4 231.8667 56.3 231.3667 C 56.2 230.8667 56.1 230.2667 56.1 229.6667 C 56.1 229.0667 56.1 228.3667 56.2 227.7667 C 56.3 227.0667 56.4 226.4667 56.6 225.8667 C 56.7 225.2667 56.9 224.7667 57.1 224.2667 C 57.3 223.7667 57.5 223.4667 57.6 223.1667 C 57.7 222.8667 57.8 222.7667 57.8 222.7667 C 57.8 222.7667 57.8 222.8667 57.7 223.1667 C 57.7 223.3667 57.6 223.7667 57.5 224.2667 C 57.4 224.7667 57.3 225.2667 57.2 225.8667 C 57.1 226.4667 57 227.0667 56.9 227.6667 C 56.8 228.2667 56.7 228.8667 56.7 229.4667 C 56.7 230.0667 56.7 230.5667 56.7 231.0667 C 56.8 232.0667 57 232.6667 57 232.6667 C 57 232.6667 56.9 232.5667 56.7 232.4667 Z " id="ID0.34988808864727616" fill="#59402f" stroke-width="1" stroke="none"/><path d="M 60.2 237.4667 C 60 237.3667 59.7 237.0667 59.5 236.7667 C 59.3 236.4667 59 236.0667 58.9 235.5667 C 58.8 235.1667 58.7 234.5667 58.6 234.0667 C 58.5 233.7667 58.5 233.5667 58.5 233.2667 C 58.5 232.9667 58.5 232.6667 58.5 232.4667 C 58.5 231.9667 58.6 231.5667 58.6 231.1667 C 58.8 230.3667 58.9 229.8667 58.9 229.8667 C 58.9 229.8667 59 230.3667 59 231.1667 C 59 231.9667 59.1 232.9667 59.2 233.9667 C 59.3 234.9667 59.5 235.9667 59.8 236.6667 C 60 237.0667 60.2 237.2667 60.3 237.4667 C 60.4 237.6667 60.5 237.7667 60.5 237.7667 C 60.5 237.7667 60.4 237.7667 60.2 237.4667 Z " id="ID0.7932556448504329" fill="#59402f" stroke-width="1" stroke="none"/></g><path d="M 60.9 238.5667 C 61.2 240.3667 61.5 242.4667 61.8 244.6667 C 62.2 246.8667 62.5 249.2667 62.9 251.6667 C 63.3 254.0667 63.7 256.4667 64.1 258.6667 C 64.5 260.8667 65 262.9667 65.5 264.6667 C 65.8 265.5667 66.1 266.3667 66.4 266.9667 C 66.5 267.0667 66.6 267.2667 66.7 267.3667 L 66.8 267.5667 C 66.9 267.5667 66.9 267.6667 67 267.6667 C 67.3 267.8667 67.5 267.8667 67.8 267.9667 C 68.8 268.1667 69.4 268.2667 69.4 268.2667 C 69.4 268.2667 68.7 268.2667 67.7 268.0667 C 67.4 268.0667 67.1 267.9667 66.8 267.8667 C 66.7 267.8667 66.7 267.8667 66.6 267.7667 L 66.4 267.5667 C 66.3 267.3667 66.2 267.2667 66.1 267.0667 C 65.7 266.3667 65.4 265.6667 65.1 264.7667 C 64.5 263.0667 64 260.9667 63.5 258.7667 C 63 256.5667 62.6 254.1667 62.2 251.7667 C 61.8 249.3667 61.5 246.9667 61.2 244.7667 C 60.9 242.5667 60.7 240.4667 60.5 238.6667 C 60.1 235.0667 60 232.6667 60 232.6667 C 60 232.6667 60.3 235.0667 60.9 238.5667 Z " id="Shape" fill="#59402f" stroke-width="1" stroke="none"/><path d="M 99.5 176.3667 C 100.4 178.8667 101.4 182.4667 102.1 186.9667 C 102.8 191.4667 103 196.7667 102.5 202.3667 C 102.2 205.1667 101.8 208.0667 101.2 210.9667 C 100.6 213.8667 99.8 216.7667 98.9 219.6667 C 98 222.4667 97 225.3667 95.8 228.0667 C 94.6 230.7667 93.4 233.3667 92.2 235.9667 C 89.8 241.0667 87.6 245.7667 85.9 249.9667 C 85 252.0667 84.3 253.9667 84.1 255.7667 C 84 256.6667 83.9 257.4667 84 258.2667 C 84 259.0667 84.3 259.7667 84.6 260.2667 C 85.4 261.3667 86.2 261.9667 86.8 262.3667 C 87.4 262.7667 87.7 262.9667 87.7 262.9667 C 87.7 262.9667 87.4 262.7667 86.8 262.3667 C 86.2 261.9667 85.3 261.3667 84.5 260.2667 C 84.2 259.6667 83.9 258.9667 83.8 258.1667 C 83.7 257.3667 83.7 256.4667 83.8 255.5667 C 84 253.6667 84.7 251.6667 85.5 249.5667 C 87.1 245.3667 89.4 240.5667 91.7 235.4667 C 92.9 232.8667 94.1 230.2667 95.3 227.5667 C 96.4 224.8667 97.5 222.0667 98.4 219.1667 C 99.3 216.3667 100.1 213.4667 100.7 210.5667 C 101.3 207.6667 101.7 204.7667 102 201.9667 C 102.6 196.3667 102.4 191.1667 101.8 186.6667 C 101.3 182.1667 100.3 178.5667 99.4 176.0667 C 98.5 173.5667 97.8 172.2667 97.8 172.2667 C 97.8 172.2667 98.5 173.5667 99.5 176.3667 Z " id="Shape" fill="#59402f" stroke-width="1" stroke="none"/></g><g data-paper-data="{&quot;origPos&quot;:null}" id="Group"><g id="Shape"><path d="M 102.9 91.9667 C 109.6 110.7667 108.3 116.3667 110.6 121.9667 C 112.9 127.5667 125.6 136.0667 132 142.3667 C 136 146.2667 139.1 149.0667 141.1 151.3667 C 143.1 153.6667 141.5 161.7667 123.9 160.0667 C 118.3 159.5667 80 141.1667 70.4 121.9667 C 57 79.4667 93.6 65.5667 102.9 91.9667 Z " id="ID0.5950554176233709" stroke-width="1" fill="#8d674a" stroke="none"/><path d="M 77.1 131.8667 C 71.9 131.1667 71.2 124.4667 71.2 124.4667 L 70.6 128.3667 C 68.1 125.1667 68 118.1667 68 118.1667 L 66.2 120.4667 C 64.8 116.4667 67.3 112.7667 67.3 112.7667 C 66.7 114.8667 64 114.5667 64 114.5667 C 66 113.4667 67.8 100.4667 67.8 100.4667 " id="ID0.30592748848721385" stroke-width="1" fill="#8d674a" stroke="none"/></g><path d="M 64.3 113.9667 C 64.5 113.6667 64.7 113.1667 64.9 112.6667 C 65.2 111.4667 65.7 109.9667 66 108.4667 C 66.4 106.9667 66.7 105.4667 66.9 104.2667 C 67.1 103.1667 67.3 102.3667 67.3 102.3667 C 67.3 102.3667 67.3 102.5667 67.3 102.8667 C 67.3 103.1667 67.3 103.6667 67.3 104.2667 C 67.3 104.8667 67.2 105.5667 67.1 106.2667 C 67 106.5667 67 106.9667 66.9 107.3667 C 66.9 107.7667 66.8 108.1667 66.7 108.5667 C 66.4 110.1667 65.9 111.6667 65.3 112.7667 C 65 113.2667 64.7 113.6667 64.5 113.9667 C 64.3 114.2667 64.1 114.3667 64.1 114.3667 C 64.1 114.3667 64.2 114.2667 64.3 113.9667 Z " id="Shape" fill="#59402f" stroke-width="1" stroke="none"/><path d="M 65.9 119.2667 C 65.8 118.9667 65.7 118.5667 65.6 118.1667 C 65.5 117.7667 65.5 117.2667 65.5 116.8667 C 65.5 116.3667 65.6 115.9667 65.7 115.5667 C 65.8 115.1667 65.9 114.8667 66.1 114.5667 C 66.3 114.2667 66.5 114.0667 66.6 113.9667 C 66.7 113.8667 66.8 113.7667 66.8 113.7667 C 66.8 113.7667 66.8 113.8667 66.7 114.0667 C 66.6 114.2667 66.6 114.4667 66.5 114.7667 C 66.4 115.0667 66.4 115.3667 66.3 115.7667 C 66.3 116.1667 66.2 116.5667 66.2 116.9667 C 66.1 117.7667 66.2 118.5667 66.2 119.1667 C 66.3 119.7667 66.3 120.1667 66.3 120.1667 C 66.3 120.1667 66.1 119.8667 65.9 119.2667 Z " id="Shape" fill="#59402f" stroke-width="1" stroke="none"/><path d="M 70.2 127.4667 C 70 127.2667 69.7 126.9667 69.4 126.5667 C 69.1 126.1667 68.8 125.6667 68.6 125.0667 C 68.4 124.5667 68.2 123.8667 68.1 123.2667 C 67.9 122.6667 67.8 121.9667 67.8 121.3667 C 67.8 120.7667 67.8 120.1667 67.8 119.6667 C 67.8 119.1667 67.9 118.7667 67.9 118.4667 C 68 118.2667 68 118.0667 68 118.0667 C 68 118.0667 68.1 118.1667 68.1 118.4667 C 68.2 118.7667 68.2 119.1667 68.3 119.6667 C 68.3 120.1667 68.4 120.6667 68.5 121.2667 C 68.6 121.8667 68.7 122.4667 68.8 123.0667 C 68.9 123.6667 69 124.2667 69.2 124.8667 C 69.3 125.4667 69.5 125.9667 69.7 126.3667 C 70.1 127.2667 70.5 127.7667 70.5 127.7667 C 70.5 127.7667 70.4 127.7667 70.2 127.4667 Z " id="Shape" fill="#59402f" stroke-width="1" stroke="none"/><path d="M 76.4 131.7667 C 76.1 131.7667 75.7 131.6667 75.3 131.4667 C 75 131.3667 74.8 131.1667 74.6 131.0667 C 74.4 130.9667 74.2 130.7667 74 130.5667 C 73.6 130.1667 73.2 129.6667 72.9 129.1667 C 72.8 128.8667 72.6 128.6667 72.5 128.3667 C 72.4 128.0667 72.3 127.8667 72.2 127.5667 C 71.9 126.9667 71.8 126.4667 71.7 126.0667 C 71.6 125.5667 71.5 125.2667 71.5 124.9667 C 71.4 124.6667 71.4 124.5667 71.4 124.5667 C 71.4 124.5667 71.5 124.7667 71.6 124.9667 C 71.7 125.2667 71.8 125.5667 72 125.9667 C 72.2 126.3667 72.3 126.8667 72.6 127.3667 C 72.7 127.5667 72.9 127.8667 73 128.0667 C 73.1 128.2667 73.2 128.5667 73.4 128.7667 C 73.7 129.1667 74 129.6667 74.4 130.0667 C 74.8 130.4667 75.1 130.8667 75.5 131.0667 C 76.2 131.5667 76.8 131.6667 76.8 131.6667 C 76.8 131.6667 76.6 131.6667 76.4 131.7667 Z " id="Shape" fill="#59402f" stroke-width="1" stroke="none"/><path d="M 135 158.7667 C 134.8 158.3667 134.4 157.9667 134.1 157.4667 C 133.8 156.9667 133.4 156.4667 133.1 156.1667 C 133 156.0667 132.9 155.8667 132.8 155.7667 C 132.7 155.6667 132.7 155.5667 132.7 155.5667 C 132.7 155.5667 133 155.6667 133.4 155.8667 C 133.8 156.0667 134.3 156.4667 134.7 156.9667 C 135 157.4667 135.3 157.9667 135.4 158.4667 C 135.5 158.9667 135.5 159.2667 135.5 159.2667 C 135.5 159.2667 135.4 159.0667 135 158.7667 Z " id="Shape" fill="#59402f" stroke-width="1" stroke="none"/><path d="M 138.9 156.4667 C 138.6 156.0667 138.2 155.5667 137.7 155.0667 C 137.3 154.5667 136.8 154.0667 136.4 153.7667 C 136.2 153.5667 136 153.4667 135.9 153.3667 C 135.8 153.2667 135.7 153.1667 135.7 153.1667 C 135.7 153.1667 135.7 153.2667 135.9 153.2667 C 136 153.2667 136.3 153.3667 136.5 153.4667 C 136.7 153.5667 137 153.7667 137.3 153.9667 C 137.6 154.1667 137.9 154.3667 138.1 154.6667 C 138.6 155.2667 139 155.8667 139.2 156.3667 C 139.4 156.8667 139.4 157.2667 139.4 157.2667 C 139.4 157.2667 139.2 156.9667 138.9 156.4667 Z " id="Shape" fill="#59402f" stroke-width="1" stroke="none"/><g id="Shape"><path d="M 133.5 159.9667 C 131.5 160.3667 128.6 160.5667 125.2 160.1667 C 123.5 159.9667 121.7 159.5667 119.8 158.9667 C 117.9 158.3667 115.9 157.4667 114 156.5667 C 112 155.6667 110 154.6667 108 153.6667 C 105.9 152.6667 103.9 151.5667 101.9 150.4667 C 99.9 149.2667 97.9 148.0667 96 146.8667 C 94.1 145.6667 92.2 144.3667 90.5 143.0667 C 87.1 140.4667 83.9 137.9667 81.4 135.5667 C 78.9 133.1667 77 130.9667 75.8 129.3667 C 74.6 127.7667 74.1 126.6667 74.1 126.6667 C 74.1 126.6667 74.2 126.9667 74.5 127.3667 C 74.8 127.7667 75.3 128.3667 75.9 129.1667 C 76.5 129.9667 77.3 130.8667 78.3 131.8667 C 79.3 132.8667 80.4 133.9667 81.7 135.0667 C 83 136.1667 84.4 137.3667 86 138.5667 C 87.5 139.7667 89.2 140.9667 90.9 142.2667 C 94.4 144.6667 98.3 147.2667 102.2 149.5667 C 104.2 150.6667 106.2 151.7667 108.2 152.8667 C 110.2 153.9667 112.2 154.9667 114.1 155.9667 C 115.9 156.9667 117.8 157.7667 119.7 158.4667 C 121.6 159.0667 123.4 159.5667 125.1 159.7667 C 126.8 159.9667 128.4 160.0667 129.8 160.0667 C 131.2 160.0667 132.4 159.9667 133.4 159.7667 C 135.4 159.4667 136.5 159.0667 136.5 159.0667 C 136.5 159.0667 135.4 159.4667 133.5 159.9667 Z " id="ID0.32890068320557475" stroke-width="1" fill="#59402f" stroke="none"/><path d="M 141.2 155.9667 C 141.4 155.5667 141.8 154.8667 141.8 153.9667 C 141.8 153.0667 141.5 151.9667 140.8 150.9667 C 140.1 149.9667 139.1 148.9667 137.9 147.9667 C 137.3 147.4667 136.6 147.0667 136 146.4667 C 135.3 145.9667 134.7 145.3667 134 144.7667 C 132.7 143.5667 131.3 142.2667 129.9 140.9667 C 128.5 139.5667 127.1 138.1667 125.5 136.8667 C 123.9 135.5667 122.3 134.2667 120.6 133.0667 C 118.9 131.8667 117.2 130.5667 115.7 129.1667 C 114.2 127.7667 112.8 126.2667 111.8 124.4667 C 111.3 123.5667 110.9 122.6667 110.6 121.7667 C 110.2 120.8667 110 119.9667 109.8 119.0667 C 109.3 117.3667 109 115.6667 108.7 114.1667 C 108.1 111.0667 107.7 108.5667 107.3 106.7667 C 106.8 104.9667 106.6 103.9667 106.6 103.9667 C 106.6 103.9667 106.7 104.1667 106.9 104.6667 C 107.1 105.1667 107.3 105.7667 107.6 106.6667 C 107.9 107.5667 108.2 108.6667 108.5 109.8667 C 108.8 111.1667 109.1 112.5667 109.4 114.0667 C 109.7 115.6667 110.1 117.2667 110.6 118.9667 C 111.1 120.6667 111.6 122.4667 112.6 124.0667 C 113.6 125.6667 114.8 127.1667 116.3 128.5667 C 117.7 129.8667 119.4 131.1667 121 132.4667 C 122.7 133.7667 124.3 135.0667 125.8 136.4667 C 127.3 137.8667 128.7 139.2667 130.1 140.6667 C 131.4 142.0667 132.8 143.3667 134.1 144.5667 C 134.7 145.1667 135.4 145.7667 136 146.2667 C 136.6 146.7667 137.3 147.2667 137.9 147.7667 C 139.1 148.8667 140.1 149.8667 140.8 150.9667 C 141.5 152.0667 141.8 153.1667 141.7 154.0667 C 141.6 155.0667 141.3 155.6667 141 156.0667 C 140.7 156.4667 140.5 156.6667 140.5 156.6667 C 140.5 156.6667 140.7 156.4667 141.2 155.9667 Z " id="ID0.687647448386997" stroke-width="1" fill="#59402f" stroke="none"/></g><path d="M 131.3 159.1667 C 130.8 158.5667 130 157.5667 131.1 157.4667 C 132.2 157.3667 133.1 159.8667 133.1 160.4667 C 133.1 160.8667 131.8 159.7667 131.3 159.1667 Z " id="Shape" fill="#6c5f57" stroke-width="1" stroke="none"/><path d="M 137 158.5667 C 136.5 157.9667 135.7 156.8667 136.8 156.8667 C 137.9 156.7667 138.8 159.2667 138.8 159.8667 C 138.8 160.2667 137.5 159.1667 137 158.5667 Z " id="Shape" fill="#6c5f57" stroke-width="1" stroke="none"/><path d="M 140.2 155.8667 C 139.7 155.2667 138.9 154.2667 140 154.1667 C 141.1 154.0667 142 156.5667 142 157.1667 C 142 157.5667 140.8 156.5667 140.2 155.8667 Z " id="Shape" fill="#6c5f57" stroke-width="1" stroke="none"/></g><g data-paper-data="{&quot;origPos&quot;:null}"><path d="M 87.9 65.8667 C 100.9 76.9667 100.4 110.8667 100.4 110.8667 C 122.3 169.2667 85.2 210.6667 63.3 216.1667 C 40 221.9667 9.6 216.1667 5.3 184.0667 C -1.3 134.3667 26.9 89.1667 26.9 89.1667 C 28.1 74.5667 34.8 57.5667 34.8 57.5667 " data-paper-data="{&quot;origPos&quot;:null}" id="Shape" fill="#8d674a" stroke-width="1" stroke="none"/><path d="M 10.6 128.3667 C 10 130.3667 9.2 133.1667 8.4 136.6667 C 8 138.3667 7.6 140.2667 7.2 142.2667 C 6.8 144.2667 6.4 146.3667 6.1 148.5667 C 5.7 150.7667 5.4 153.0667 5.2 155.3667 C 5 157.6667 4.8 159.9667 4.7 162.3667 C 4.6 164.7667 4.5 167.1667 4.6 169.4667 C 4.7 170.6667 4.7 171.8667 4.8 172.9667 C 4.9 174.1667 5 175.2667 5.1 176.3667 C 5.2 177.4667 5.3 178.4667 5.5 179.5667 C 5.6 180.6667 5.8 181.6667 6 182.6667 C 6.2 183.6667 6.4 184.6667 6.6 185.5667 C 6.8 186.4667 7 187.3667 7.3 188.2667 C 7.7 189.9667 8.2 191.4667 8.7 192.8667 C 9.1 194.2667 9.6 195.3667 10 196.3667 C 10.9 198.2667 11.4 199.3667 11.4 199.3667 C 11.4 199.3667 10.8 198.3667 9.9 196.4667 C 9.5 195.4667 8.9 194.3667 8.4 192.9667 C 8.1 192.2667 7.9 191.5667 7.6 190.7667 C 7.3 190.0667 7.1 189.2667 6.8 188.3667 C 6.6 187.4667 6.3 186.5667 6.1 185.6667 C 5.8 184.7667 5.6 183.7667 5.4 182.7667 C 5.2 181.7667 4.9 180.7667 4.8 179.6667 C 4.7 178.5667 4.5 177.4667 4.4 176.3667 C 4.3 175.2667 4.2 174.0667 4.1 172.9667 C 4 171.7667 3.9 170.6667 3.9 169.4667 C 3.8 167.1667 3.8 164.7667 3.9 162.3667 C 4 159.9667 4.1 157.5667 4.4 155.2667 C 4.6 152.9667 4.9 150.6667 5.3 148.4667 C 6 144.0667 6.9 140.0667 7.8 136.5667 C 9.6 129.6667 11.4 125.2667 11.4 125.2667 C 11.4 125.2667 11 126.3667 10.6 128.3667 Z " data-paper-data="{&quot;origPos&quot;:null}" id="Shape" fill="#59402f" stroke-width="1" stroke="none"/><path d="M 105.6 129.9667 C 106.3 133.5667 106.9 137.8667 107.2 142.4667 C 107.5 147.0667 107.5 152.0667 106.9 156.9667 C 106.6 159.4667 106.2 161.8667 105.6 164.2667 C 105.3 165.4667 105 166.6667 104.6 167.7667 C 104.3 168.8667 103.9 169.9667 103.5 171.0667 C 103.1 172.1667 102.7 173.2667 102.3 174.2667 C 101.9 175.2667 101.5 176.2667 101.1 177.2667 C 100.2 179.1667 99.3 180.9667 98.5 182.6667 C 97.6 184.2667 96.8 185.7667 96 187.0667 C 95.3 188.3667 94.5 189.4667 93.9 190.3667 C 92.6 192.1667 91.8 193.0667 91.8 193.0667 C 91.8 193.0667 92.5 192.0667 93.7 190.2667 C 94.3 189.3667 95 188.2667 95.7 186.9667 C 96.5 185.6667 97.3 184.1667 98.1 182.5667 C 98.9 180.9667 99.7 179.1667 100.5 177.1667 C 101.3 175.2667 102.1 173.1667 102.8 170.9667 C 103.2 169.9667 103.6 168.7667 103.9 167.6667 C 104.3 166.5667 104.6 165.4667 104.9 164.2667 C 105.5 161.8667 105.9 159.4667 106.2 157.0667 C 106.8 152.1667 106.9 147.2667 106.6 142.6667 C 106.4 138.0667 105.8 133.7667 105.2 130.1667 C 104 122.8667 102.5 118.1667 102.5 118.1667 C 102.5 118.1667 104.1 122.8667 105.6 129.9667 Z " data-paper-data="{&quot;origPos&quot;:null}" id="Shape" fill="#59402f" stroke-width="1" stroke="none"/><path d="M 70.2 213.5667 C 68.7 214.1667 66.5 215.0667 63.7 215.8667 C 62.3 216.2667 60.8 216.6667 59.2 216.9667 C 57.6 217.2667 55.9 217.5667 54.1 217.7667 C 52.3 217.9667 50.5 218.0667 48.6 218.0667 C 46.7 218.1667 44.8 218.0667 42.9 217.8667 C 41.9 217.7667 40.9 217.5667 40 217.4667 C 39.1 217.2667 38.1 217.0667 37.2 216.8667 C 35.4 216.4667 33.6 215.9667 31.9 215.3667 C 30.2 214.7667 28.6 214.0667 27.1 213.3667 C 26.4 212.9667 25.7 212.6667 25 212.2667 C 24.4 211.9667 23.7 211.5667 23.1 211.1667 C 21.9 210.4667 20.8 209.6667 19.9 208.9667 C 19 208.2667 18.2 207.6667 17.6 207.0667 C 16.3 205.8667 15.6 205.2667 15.6 205.2667 C 15.6 205.2667 16.3 205.8667 17.6 206.9667 C 18.2 207.4667 19.1 208.0667 20 208.7667 C 20.4 209.0667 21 209.3667 21.5 209.7667 C 22 210.0667 22.6 210.5667 23.2 210.8667 C 23.8 211.2667 24.4 211.5667 25.1 211.9667 C 25.7 212.3667 26.5 212.6667 27.2 213.0667 C 28.6 213.7667 30.2 214.3667 31.9 214.9667 C 33.6 215.5667 35.4 216.0667 37.2 216.4667 C 38.1 216.6667 39.1 216.7667 40 216.9667 C 40.9 217.0667 41.9 217.1667 42.8 217.2667 C 44.6 217.4667 46.5 217.5667 48.4 217.5667 C 50.3 217.5667 52.1 217.4667 53.9 217.2667 C 57.5 216.8667 60.7 216.2667 63.5 215.5667 C 66.3 214.7667 68.5 214.0667 70.1 213.4667 C 71.6 212.8667 72.5 212.4667 72.5 212.4667 C 72.5 212.4667 71.7 212.9667 70.2 213.5667 Z " data-paper-data="{&quot;origPos&quot;:null}" id="Shape" fill="#59402f" stroke-width="1" stroke="none"/><path d="M 92 69.5667 C 92.5 70.2667 93.2 71.3667 93.9 72.7667 C 94.3 73.4667 94.7 74.2667 95 75.0667 C 95.3 75.8667 95.7 76.7667 96 77.6667 C 96.3 78.5667 96.6 79.4667 96.9 80.4667 C 97.2 81.4667 97.5 82.4667 97.7 83.4667 C 97.9 84.4667 98.1 85.4667 98.3 86.4667 C 98.5 87.4667 98.7 88.3667 98.8 89.3667 C 98.9 90.3667 99 91.2667 99.1 92.1667 C 99.2 93.0667 99.2 93.8667 99.3 94.6667 C 99.4 96.1667 99.4 97.4667 99.4 98.3667 C 99.4 99.2667 99.4 99.7667 99.4 99.7667 C 99.4 99.7667 99.4 99.2667 99.3 98.3667 C 99.2 97.4667 99.1 96.1667 98.9 94.6667 C 98.8 93.8667 98.7 93.0667 98.6 92.1667 C 98.5 91.3667 98.4 90.3667 98.2 89.4667 C 98.1 88.4667 97.9 87.5667 97.7 86.5667 C 97.5 85.5667 97.2 84.5667 97 83.5667 C 96.8 82.5667 96.4 81.6667 96.2 80.6667 C 95.9 79.6667 95.6 78.7667 95.3 77.8667 C 94.9 76.9667 94.6 76.0667 94.3 75.2667 C 94 74.4667 93.6 73.6667 93.3 72.9667 C 92.6 71.5667 92.1 70.4667 91.6 69.6667 C 91.1 68.8667 90.8 68.4667 90.8 68.4667 C 90.8 68.4667 91.2 68.8667 92 69.5667 Z " data-paper-data="{&quot;origPos&quot;:null}" id="Shape" fill="#59402f" stroke-width="1" stroke="none"/></g><g id="Group"><path d="M 76 85.3667 C 76 85.3667 83.2 90.6667 84.1 94.0667 L 81.2 92.8667 C 81.2 92.8667 86.5 97.8667 86.4 102.2667 L 84.4 100.5667 C 84.4 100.5667 89.7 106.8667 87.2 112.9667 L 86 110.7667 C 86 110.7667 84.4 118.6667 86.6 120.8667 L 84.5 120.3667 C 84.5 120.3667 84 128.6667 80.8 129.3667 " id="Shape" fill="#8d674a" stroke-width="1" stroke="none"/><path d="M 78.1 86.7667 C 79 87.3667 80.1 88.2667 81.1 89.2667 C 81.6 89.7667 82.1 90.3667 82.5 90.8667 C 82.7 91.1667 82.8 91.3667 83 91.6667 C 83.2 91.9667 83.3 92.2667 83.4 92.4667 C 83.6 92.7667 83.6 92.9667 83.7 93.1667 C 83.8 93.3667 83.9 93.4667 83.9 93.6667 C 84 93.9667 84 94.1667 84 94.1667 C 84 94.1667 83.9 94.0667 83.8 93.7667 C 83.7 93.5667 83.6 93.4667 83.5 93.2667 C 83.4 93.0667 83.3 92.8667 83.1 92.6667 C 82.5 91.7667 81.6 90.7667 80.6 89.7667 C 79.7 88.7667 78.7 87.7667 77.9 87.0667 C 77.1 86.3667 76.6 85.8667 76.6 85.8667 C 76.6 85.8667 77.2 86.2667 78.1 86.7667 Z " id="Shape" fill="#59402f" stroke-width="1" stroke="none"/><path d="M 82.3 94.0667 C 83 94.8667 83.9 95.8667 84.6 96.9667 C 85 97.4667 85.3 98.0667 85.6 98.6667 C 85.9 99.1667 86.1 99.7667 86.2 100.2667 C 86.3 100.5667 86.3 100.7667 86.3 100.9667 C 86.3 101.1667 86.3 101.3667 86.3 101.4667 C 86.2 101.7667 86.2 101.9667 86.2 101.9667 C 86.2 101.9667 86.2 101.7667 86.2 101.4667 C 86.2 101.3667 86.1 101.1667 86.1 100.9667 C 86.1 100.7667 86 100.5667 85.9 100.3667 C 85.8 99.8667 85.5 99.3667 85.2 98.8667 C 84.9 98.3667 84.6 97.7667 84.2 97.2667 C 83.5 96.1667 82.8 95.0667 82.2 94.2667 C 81.7 93.3667 81.3 92.8667 81.3 92.8667 C 81.3 92.8667 81.8 93.2667 82.3 94.0667 Z " id="Shape" fill="#59402f" stroke-width="1" stroke="none"/><path d="M 85.7 102.3667 C 86.1 102.9667 86.5 103.5667 86.8 104.2667 C 87.2 104.9667 87.5 105.7667 87.7 106.5667 C 87.8 106.9667 87.9 107.3667 88 107.7667 C 88 108.1667 88.1 108.5667 88.1 108.9667 C 88.1 109.3667 88.2 109.7667 88.1 110.1667 C 88.1 110.4667 88.1 110.8667 88 111.1667 C 87.9 111.4667 87.9 111.6667 87.8 111.9667 C 87.7 112.1667 87.6 112.3667 87.5 112.5667 C 87.4 112.8667 87.3 113.0667 87.3 113.0667 C 87.3 113.0667 87.3 112.8667 87.4 112.4667 C 87.4 112.3667 87.4 112.0667 87.5 111.8667 C 87.5 111.6667 87.6 111.3667 87.6 111.0667 C 87.6 110.7667 87.6 110.3667 87.6 110.0667 C 87.6 109.6667 87.5 109.3667 87.5 108.9667 C 87.5 108.5667 87.4 108.1667 87.3 107.7667 C 87.2 107.3667 87.1 106.9667 87 106.5667 C 86.6 104.9667 85.9 103.4667 85.3 102.3667 C 84.8 101.2667 84.3 100.5667 84.3 100.5667 C 84.3 100.5667 84.9 101.0667 85.7 102.3667 Z " id="Shape" fill="#59402f" stroke-width="1" stroke="none"/><path d="M 85.9 112.4667 C 85.9 112.8667 85.8 113.4667 85.8 114.0667 C 85.7 114.6667 85.7 115.3667 85.7 115.9667 C 85.7 116.6667 85.7 117.2667 85.8 117.8667 C 85.8 118.0667 85.9 118.3667 85.9 118.6667 C 86 118.9667 86.1 119.2667 86.1 119.4667 C 86.2 119.6667 86.2 119.8667 86.3 120.0667 C 86.4 120.2667 86.5 120.4667 86.5 120.5667 C 86.6 120.7667 86.7 120.9667 86.7 120.9667 C 86.7 120.9667 86.6 120.7667 86.4 120.5667 C 86.3 120.4667 86.2 120.3667 86.1 120.1667 C 86 119.9667 85.9 119.7667 85.8 119.5667 C 85.6 119.1667 85.4 118.5667 85.3 117.9667 C 85.2 117.3667 85.1 116.7667 85.1 116.0667 C 85.1 115.4667 85.1 114.7667 85.2 114.1667 C 85.3 113.4667 85.4 112.9667 85.5 112.4667 C 85.7 111.4667 86 110.8667 86 110.8667 C 86 110.8667 85.9 111.5667 85.9 112.4667 Z " id="Shape" fill="#59402f" stroke-width="1" stroke="none"/><path d="M 84.6 122.3667 C 84.6 122.8667 84.5 123.4667 84.4 124.0667 C 84.3 124.6667 84.1 125.3667 83.9 125.9667 C 83.7 126.5667 83.4 127.1667 83.1 127.7667 C 82.8 128.2667 82.4 128.7667 82.1 129.1667 C 81.9 129.3667 81.7 129.5667 81.6 129.6667 C 81.5 129.7667 81.3 129.8667 81.2 129.9667 C 80.9 130.1667 80.8 130.2667 80.8 130.2667 C 80.8 130.2667 80.9 130.0667 81.1 129.8667 C 81.2 129.7667 81.3 129.6667 81.4 129.4667 C 81.5 129.2667 81.7 129.0667 81.8 128.8667 C 81.9 128.6667 82.1 128.3667 82.2 128.1667 C 82.3 127.8667 82.5 127.6667 82.6 127.3667 C 82.9 126.7667 83.1 126.1667 83.3 125.5667 C 83.5 124.9667 83.7 124.3667 83.8 123.7667 C 84 123.1667 84.1 122.6667 84.2 122.1667 C 84.4 121.2667 84.5 120.5667 84.5 120.5667 C 84.5 120.5667 84.6 121.1667 84.6 122.3667 Z " id="Shape" fill="#59402f" stroke-width="1" stroke="none"/></g><g id="Group"><path d="M 49.1 193.7667 C 49.1 193.7667 51 215.8667 34.6 239.1667 C 26.4 250.7667 24.6 259.8667 26.1 262.3667 C 27.6 264.8667 32.7 266.9667 31.3 268.3667 C 29.8 269.7667 11.5 270.6667 7.5 268.4667 C 5.8 267.5667 2.5 240.5667 4.6 228.8667 C 6.6 217.1667 8.7 213.3667 8.3 204.7667 C 7.9 196.1667 3.4 181.2667 6.9 174.7667 C 10.3 168.2667 20.1 157.7667 35 164.5667 C 49.9 171.3667 49.7 187.9667 49.1 193.7667 Z " id="Shape" fill="#8d674a" stroke-width="1" stroke="none"/><path d="M 23.3 268.6667 C 23 268.2667 22.7 267.7667 22.3 267.3667 C 22 266.9667 21.6 266.4667 21.3 266.1667 C 21.1 265.9667 21 265.8667 20.9 265.7667 C 20.8 265.6667 20.8 265.5667 20.8 265.5667 C 20.8 265.5667 21.1 265.6667 21.5 265.8667 C 21.9 266.0667 22.4 266.4667 22.8 266.9667 C 23.2 267.4667 23.5 267.9667 23.6 268.4667 C 23.7 268.9667 23.7 269.2667 23.7 269.2667 C 23.7 269.2667 23.6 268.9667 23.3 268.6667 Z " id="Shape" fill="#59402f" stroke-width="1" stroke="none"/><path d="M 28.4 268.2667 C 28.1 267.8667 27.7 267.3667 27.2 266.8667 C 26.7 266.3667 26.2 265.8667 25.8 265.5667 C 25.6 265.3667 25.4 265.2667 25.3 265.1667 C 25.2 265.0667 25.1 264.9667 25.1 264.9667 C 25.1 264.9667 25.1 264.9667 25.3 264.9667 C 25.4 264.9667 25.6 265.0667 25.9 265.1667 C 26.1 265.2667 26.4 265.3667 26.7 265.5667 C 27 265.7667 27.2 265.9667 27.5 266.2667 C 28 266.8667 28.4 267.4667 28.6 267.9667 C 28.9 268.4667 28.9 268.8667 28.9 268.8667 C 28.9 268.8667 28.7 268.5667 28.4 268.2667 Z " id="Shape" fill="#59402f" stroke-width="1" stroke="none"/><path d="M 21.1 269.3667 C 20.5 268.7667 19.8 267.7667 20.8 267.6667 C 21.9 267.5667 22.9 269.9667 22.9 270.5667 C 23 270.9667 21.7 269.9667 21.1 269.3667 Z " id="Shape" fill="#6c5f57" stroke-width="1" stroke="none"/><path d="M 26.2 268.5667 C 25.6 267.9667 24.9 266.9667 25.9 266.8667 C 27 266.7667 28 269.1667 28 269.7667 C 28.1 270.1667 26.8 269.1667 26.2 268.5667 Z " id="Shape" fill="#6c5f57" stroke-width="1" stroke="none"/><path d="M 29.4 268.1667 C 28.8 267.5667 28.1 266.5667 29.1 266.4667 C 30.2 266.3667 31.2 268.7667 31.2 269.3667 C 31.3 269.6667 30 268.7667 29.4 268.1667 Z " id="Shape" fill="#6c5f57" stroke-width="1" stroke="none"/><g id="Shape"><path d="M 5.1 239.2667 C 0.7 236.4667 2.9 230.0667 2.9 230.0667 L 0.7 233.3667 C -0.3 229.3667 2.6 222.9667 2.6 222.9667 L 0 224.2667 C 0.4 220.0667 4.2 217.7667 4.2 217.7667 C 2.7 219.4667 0.4 218.0667 0.4 218.0667 C 2.6 217.8667 8.5 207.4667 8.5 207.4667 " id="ID0.6276099039241672" fill="#8d674a" stroke-width="1" stroke="none"/><path d="M 1 217.7667 C 1.2 217.5667 1.6 217.2667 1.9 216.8667 C 2.6 216.1667 3.4 214.9667 4.2 213.8667 C 5 212.7667 5.8 211.6667 6.4 210.7667 C 7.1 209.9667 7.5 209.3667 7.5 209.3667 C 7.5 209.3667 7.3 209.9667 6.8 210.9667 C 6.5 211.4667 6.2 211.9667 5.9 212.5667 C 5.6 213.0667 5.2 213.6667 4.8 214.2667 C 4 215.3667 3 216.4667 2.2 217.1667 C 1.8 217.4667 1.4 217.7667 1.1 217.8667 C 0.8 217.9667 0.6 217.9667 0.6 217.9667 C 0.6 217.9667 0.8 217.8667 1 217.7667 Z " id="ID0.05894712172448635" fill="#59402f" stroke-width="1" stroke="none"/><path d="M 0.2 223.2667 C 0.2 222.9667 0.3 222.5667 0.4 222.1667 C 0.5 221.7667 0.7 221.3667 0.9 220.9667 C 1.1 220.5667 1.3 220.1667 1.6 219.8667 C 1.8 219.4667 2.1 219.2667 2.4 219.0667 C 2.7 218.8667 2.9 218.7667 3.1 218.6667 C 3.3 218.5667 3.4 218.5667 3.4 218.5667 C 3.4 218.5667 3.3 218.6667 3.2 218.7667 C 3.1 218.9667 2.9 219.1667 2.7 219.3667 C 2.5 219.5667 2.3 219.8667 2.1 220.1667 C 1.9 220.4667 1.7 220.7667 1.5 221.1667 C 1.1 221.8667 0.8 222.5667 0.6 223.1667 C 0.3 223.7667 0.2 224.1667 0.2 224.1667 C 0.2 224.1667 0.1 223.7667 0.2 223.2667 Z " id="ID0.33057771855965257" fill="#59402f" stroke-width="1" stroke="none"/><path d="M 0.5 232.3667 C 0.4 232.1667 0.3 231.7667 0.2 231.2667 C 0.1 230.7667 0.1 230.1667 0.1 229.5667 C 0.1 228.9667 0.3 228.2667 0.4 227.6667 C 0.6 227.0667 0.8 226.4667 1 225.8667 C 1.2 225.2667 1.5 224.7667 1.7 224.3667 C 1.9 223.9667 2.2 223.5667 2.3 223.3667 C 2.4 223.0667 2.5 222.9667 2.5 222.9667 C 2.5 222.9667 2.5 223.0667 2.4 223.3667 C 2.4 223.6667 2.2 223.9667 2.1 224.4667 C 1.9 224.9667 1.8 225.4667 1.6 226.0667 C 1.4 226.6667 1.2 227.2667 1.1 227.8667 C 1 228.4667 0.9 229.0667 0.8 229.6667 C 0.7 230.2667 0.7 230.7667 0.7 231.2667 C 0.6 232.2667 0.8 232.8667 0.8 232.8667 C 0.8 232.8667 0.7 232.6667 0.5 232.3667 Z " id="ID0.009691714774817228" fill="#59402f" stroke-width="1" stroke="none"/><path d="M 3.5 238.1667 C 3.4 237.9667 3.1 237.7667 2.9 237.3667 C 2.7 236.9667 2.5 236.5667 2.4 236.0667 C 2.3 235.5667 2.2 234.9667 2.2 234.4667 C 2.2 234.1667 2.2 233.9667 2.2 233.6667 C 2.2 233.3667 2.3 233.0667 2.3 232.8667 C 2.3 232.3667 2.4 231.9667 2.5 231.5667 C 2.7 230.7667 2.9 230.2667 2.9 230.2667 C 2.9 230.2667 2.9 230.7667 2.9 231.5667 C 2.9 232.3667 2.9 233.3667 2.9 234.3667 C 2.9 235.3667 3.1 236.3667 3.3 237.0667 C 3.4 237.3667 3.6 237.6667 3.7 237.8667 C 3.8 238.0667 3.9 238.1667 3.9 238.1667 C 3.9 238.1667 3.8 238.0667 3.5 238.1667 Z " id="ID0.06640257779508829" fill="#59402f" stroke-width="1" stroke="none"/></g><path d="M 4 239.2667 C 4.2 241.0667 4.3 243.1667 4.4 245.4667 C 4.6 247.7667 4.7 250.1667 4.9 252.5667 C 5 254.9667 5.2 257.3667 5.5 259.5667 C 5.7 261.8667 6 263.8667 6.4 265.6667 C 6.6 266.4667 6.8 267.2667 7.1 267.9667 C 7.1 268.1667 7.2 268.3667 7.3 268.4667 L 7.4 268.6667 C 7.5 268.6667 7.5 268.7667 7.6 268.7667 C 7.9 268.8667 8.2 268.9667 8.4 269.0667 C 9.4 269.3667 10 269.4667 10 269.4667 C 10 269.4667 9.4 269.4667 8.4 269.1667 C 8.2 269.0667 7.9 268.9667 7.6 268.8667 C 7.5 268.7667 7.5 268.7667 7.4 268.6667 L 7.3 268.4667 C 7.2 268.2667 7.1 268.1667 7 267.9667 C 6.7 267.2667 6.4 266.4667 6.2 265.5667 C 5.8 263.7667 5.4 261.6667 5.1 259.4667 C 4.8 257.1667 4.6 254.7667 4.4 252.3667 C 4.2 249.9667 4.1 247.5667 4 245.2667 C 3.9 242.9667 3.8 240.8667 3.8 239.0667 C 3.7 235.4667 3.8 233.0667 3.8 233.0667 C 3.8 233.0667 3.9 235.4667 4 239.2667 Z " id="Shape" fill="#59402f" stroke-width="1" stroke="none"/><path d="M 48.5 206.6667 C 48.1 208.4667 47.5 211.0667 46.6 214.0667 C 46.1 215.5667 45.6 217.2667 45.1 218.9667 C 44.5 220.6667 43.9 222.5667 43.2 224.3667 C 42.5 226.2667 41.7 228.1667 40.7 229.9667 C 40.2 230.9667 39.6 231.8667 39 232.6667 C 38.4 233.4667 37.8 234.3667 37.3 235.2667 C 35.1 238.8667 33 242.4667 31.2 245.9667 C 29.5 249.4667 27.8 252.7667 26.7 255.6667 C 26.4 256.3667 26.3 257.0667 26.1 257.7667 C 25.9 258.4667 25.8 259.1667 25.7 259.7667 C 25.6 260.3667 25.6 260.9667 25.8 261.4667 C 26 261.9667 26.3 262.4667 26.6 262.7667 C 27.2 263.4667 27.7 263.9667 28.1 264.2667 C 28.5 264.5667 28.7 264.7667 28.7 264.7667 C 28.7 264.7667 28.5 264.6667 28.1 264.3667 C 27.8 264.0667 27.1 263.6667 26.5 262.9667 C 26.2 262.5667 25.8 262.1667 25.6 261.6667 C 25.3 261.1667 25.3 260.5667 25.3 259.8667 C 25.3 259.2667 25.5 258.5667 25.6 257.8667 C 25.8 257.1667 25.9 256.3667 26.2 255.6667 C 26.7 254.1667 27.4 252.5667 28.1 250.8667 C 28.8 249.1667 29.6 247.4667 30.5 245.6667 C 32.3 242.1667 34.3 238.4667 36.5 234.8667 C 37.1 234.0667 37.7 233.1667 38.3 232.2667 C 38.9 231.3667 39.5 230.5667 40 229.6667 C 41 227.9667 41.7 226.0667 42.5 224.2667 C 44 220.6667 45.2 217.1667 46.1 214.1667 C 47 211.1667 47.8 208.6667 48.3 206.8667 C 48.8 205.0667 49.1 204.0667 49.1 204.0667 C 49.1 204.0667 48.9 205.0667 48.5 206.6667 Z " id="Shape" fill="#59402f" stroke-width="1" stroke="none"/></g><path d="M 32.5 64.3667 C 32 66.0667 31.3 68.3667 30.6 70.5667 C 30.3 71.6667 29.9 72.7667 29.6 73.8667 C 29.3 74.9667 29 75.8667 28.8 76.7667 C 28.7 77.2667 28.6 77.6667 28.5 77.9667 C 28.4 78.2667 28.3 78.5667 28.3 78.8667 C 28.2 79.3667 28.2 79.6667 28.2 79.6667 C 28.2 79.6667 28.2 79.3667 28.2 78.8667 C 28.3 78.3667 28.3 77.6667 28.5 76.7667 C 28.6 75.8667 28.8 74.8667 29.1 73.7667 C 29.4 72.7667 29.8 71.5667 30.1 70.4667 C 30.5 69.3667 30.8 68.1667 31.2 67.1667 C 31.6 66.1667 32 65.1667 32.3 64.3667 C 33 62.7667 33.5 61.6667 33.5 61.6667 C 33.5 61.6667 33.2 62.8667 32.5 64.3667 Z " id="Shape" fill="#59402f" stroke-width="1" stroke="none"/><g id="Group"><g id="Shape"><g id="ID0.014871589373797178"><path d="M 52.8 92.7667 C 52.6 112.7667 49.4 117.5667 49.7 123.5667 C 50 129.5667 58.9 142.0667 62.7 150.0667 C 65.1 155.0667 67 158.7667 68.2 161.6667 C 69.4 164.5667 64.9 171.5667 49 163.8667 C 43.9 161.3667 14.3 130.9667 12 109.5667 C 14 65.1667 53.2 64.7667 52.8 92.7667 Z " id="ID0.397368922829628" stroke-width="1" fill="#8d674a" stroke="none"/><path d="M 14.9 121.2667 C 10.2 118.7667 11.9 112.2667 11.9 112.2667 L 10 115.6667 C 8.8 111.7667 11.1 105.1667 11.1 105.1667 L 8.6 106.6667 C 8.6 102.4667 12.2 99.8667 12.2 99.8667 C 10.9 101.6667 8.5 100.4667 8.5 100.4667 C 10.7 100.1667 16.9 88.5667 16.9 88.5667 " id="ID0.20622257702052593" stroke-width="1" fill="#8d674a" stroke="none"/></g><path d="M 9 100.1667 C 9.3 99.9667 9.6 99.5667 10 99.1667 C 10.7 98.2667 11.7 96.9667 12.5 95.6667 C 13.4 94.3667 14.2 92.9667 14.8 91.9667 C 15.5 90.9667 15.9 90.2667 15.9 90.2667 C 15.9 90.2667 15.8 90.4667 15.7 90.7667 C 15.6 91.0667 15.4 91.5667 15.2 92.0667 C 14.9 92.5667 14.7 93.1667 14.3 93.8667 C 14.1 94.1667 13.9 94.5667 13.7 94.8667 C 13.5 95.1667 13.3 95.5667 13.1 95.8667 C 12.2 97.1667 11.2 98.4667 10.3 99.2667 C 9.8 99.6667 9.4 99.9667 9.1 100.1667 C 8.8 100.2667 8.6 100.3667 8.6 100.3667 C 8.6 100.3667 8.8 100.2667 9 100.1667 Z " id="ID0.29099849378690124" fill="#59402f" stroke-width="1" stroke="none"/><path d="M 8.6 105.3667 C 8.6 105.0667 8.6 104.6667 8.7 104.2667 C 8.8 103.8667 8.9 103.4667 9.1 103.0667 C 9.3 102.6667 9.5 102.2667 9.7 101.9667 C 10 101.6667 10.3 101.3667 10.5 101.1667 C 10.7 100.9667 10.9 100.8667 11.1 100.7667 C 11.3 100.6667 11.4 100.6667 11.4 100.6667 C 11.4 100.6667 11.3 100.7667 11.2 100.8667 C 11 100.9667 10.9 101.2667 10.7 101.4667 C 10.6 101.7667 10.4 102.0667 10.2 102.3667 C 10 102.7667 9.9 103.0667 9.7 103.4667 C 9.4 104.1667 9.2 104.9667 9 105.5667 C 8.8 106.1667 8.7 106.5667 8.7 106.5667 C 8.7 106.5667 8.6 106.1667 8.6 105.3667 Z " id="ID0.7462669094093144" fill="#59402f" stroke-width="1" stroke="none"/><path d="M 9.7 114.9667 C 9.6 114.7667 9.4 114.3667 9.3 113.8667 C 9.2 113.3667 9.1 112.7667 9.1 112.1667 C 9.1 111.5667 9.1 110.8667 9.2 110.2667 C 9.3 109.5667 9.4 108.9667 9.6 108.3667 C 9.7 107.7667 9.9 107.2667 10.1 106.7667 C 10.3 106.2667 10.5 105.9667 10.6 105.6667 C 10.7 105.3667 10.8 105.2667 10.8 105.2667 C 10.8 105.2667 10.8 105.3667 10.7 105.6667 C 10.7 105.8667 10.6 106.2667 10.5 106.7667 C 10.4 107.2667 10.3 107.7667 10.2 108.3667 C 10.1 108.9667 10 109.5667 9.9 110.1667 C 9.8 110.7667 9.7 111.3667 9.7 111.9667 C 9.7 112.5667 9.7 113.0667 9.7 113.5667 C 9.8 114.5667 10 115.1667 10 115.1667 C 10 115.1667 9.9 115.0667 9.7 114.9667 Z " id="ID0.5879189725965261" fill="#59402f" stroke-width="1" stroke="none"/><path d="M 14.1 120.8667 C 13.9 120.7667 13.5 120.5667 13.2 120.2667 C 13 120.0667 12.9 119.8667 12.7 119.6667 C 12.6 119.4667 12.4 119.2667 12.3 118.9667 C 12 118.4667 11.8 117.8667 11.7 117.2667 C 11.7 116.9667 11.6 116.6667 11.6 116.3667 C 11.6 116.0667 11.6 115.7667 11.6 115.4667 C 11.6 114.9667 11.7 114.3667 11.7 113.9667 C 11.8 113.4667 11.9 113.1667 11.9 112.8667 C 12 112.5667 12 112.4667 12 112.4667 C 12 112.4667 12 112.5667 12 112.8667 C 12 113.1667 12 113.5667 12 113.9667 C 12 114.3667 12 114.9667 12.1 115.4667 C 12.1 115.6667 12.2 115.9667 12.2 116.2667 C 12.2 116.4667 12.2 116.7667 12.3 117.0667 C 12.4 117.6667 12.6 118.1667 12.8 118.6667 C 13 119.1667 13.2 119.6667 13.5 119.9667 C 14 120.6667 14.5 120.9667 14.5 120.9667 C 14.5 120.9667 14.4 120.9667 14.1 120.8667 Z " id="ID0.024006353225558996" fill="#59402f" stroke-width="1" stroke="none"/><path d="M 59.9 166.3667 C 59.8 165.9667 59.7 165.3667 59.5 164.8667 C 59.3 164.3667 59.1 163.7667 59 163.3667 C 58.9 163.1667 58.8 162.9667 58.8 162.8667 C 58.7 162.7667 58.7 162.6667 58.7 162.6667 C 58.7 162.6667 59 162.8667 59.3 163.2667 C 59.6 163.5667 59.9 164.1667 60.1 164.7667 C 60.3 165.3667 60.4 165.9667 60.3 166.4667 C 60.2 166.9667 60.1 167.2667 60.1 167.2667 C 60.1 167.2667 60 166.9667 59.9 166.3667 Z " id="ID0.2638413533568382" fill="#59402f" stroke-width="1" stroke="none"/><path d="M 64.1 166.0667 C 64 165.5667 63.8 164.8667 63.5 164.2667 C 63.3 163.6667 63 163.0667 62.7 162.5667 C 62.6 162.2667 62.5 162.0667 62.4 161.9667 C 62.3 161.8667 62.3 161.7667 62.3 161.7667 C 62.3 161.7667 62.4 161.7667 62.5 161.8667 C 62.6 161.9667 62.8 162.0667 63 162.2667 C 63.2 162.4667 63.4 162.6667 63.6 162.9667 C 63.8 163.1667 64 163.5667 64.1 163.8667 C 64.4 164.4667 64.5 165.2667 64.5 165.7667 C 64.5 166.2667 64.4 166.6667 64.4 166.6667 C 64.4 166.6667 64.3 166.3667 64.1 166.0667 Z " id="ID0.1352508100681007" fill="#59402f" stroke-width="1" stroke="none"/><g id="ID0.9605620335787535"><path d="M 58.1 166.9667 C 56.1 166.6667 53.3 165.8667 50.2 164.2667 C 48.7 163.4667 47.1 162.4667 45.5 161.2667 C 43.9 160.0667 42.4 158.5667 40.9 157.0667 C 39.4 155.4667 37.8 153.9667 36.3 152.2667 C 34.7 150.6667 33.2 148.9667 31.7 147.1667 C 30.2 145.3667 28.8 143.5667 27.4 141.7667 C 26 139.8667 24.8 138.0667 23.6 136.2667 C 21.2 132.6667 19.1 129.1667 17.6 126.0667 C 16 122.9667 15 120.1667 14.5 118.2667 C 13.9 116.3667 13.8 115.1667 13.8 115.1667 C 13.8 115.1667 13.9 115.4667 14 115.9667 C 14.1 116.4667 14.4 117.2667 14.7 118.1667 C 15.1 119.0667 15.5 120.1667 16.1 121.4667 C 16.7 122.7667 17.4 124.1667 18.2 125.6667 C 19 127.1667 19.9 128.7667 21 130.4667 C 22.1 132.1667 23.2 133.8667 24.4 135.6667 C 26.8 139.2667 29.5 142.9667 32.4 146.4667 C 33.8 148.2667 35.3 149.9667 36.8 151.6667 C 38.3 153.3667 39.8 154.9667 41.2 156.5667 C 42.6 158.1667 44.1 159.5667 45.6 160.8667 C 47.2 162.0667 48.7 163.1667 50.2 163.9667 C 51.7 164.7667 53.2 165.4667 54.5 165.8667 C 55.8 166.3667 57 166.6667 58 166.8667 C 59.9 167.2667 61.1 167.2667 61.1 167.2667 C 61.1 167.2667 59.9 167.3667 58.1 166.9667 Z " id="ID0.030585989821702242" stroke-width="1" fill="#59402f" stroke="none"/><path d="M 66.4 166.1667 C 66.8 165.8667 67.4 165.3667 67.7 164.5667 C 68 163.7667 68.1 162.5667 67.8 161.3667 C 67.5 160.0667 66.9 158.7667 66.1 157.4667 C 65.7 156.7667 65.2 156.0667 64.8 155.3667 C 64.3 154.6667 63.9 153.8667 63.5 153.0667 C 62.7 151.4667 61.9 149.7667 61 148.0667 C 60.1 146.3667 59.3 144.5667 58.3 142.7667 C 57.3 141.0667 56.1 139.2667 55 137.5667 C 53.9 135.7667 52.7 133.9667 51.8 132.1667 C 50.9 130.2667 50.1 128.3667 49.8 126.3667 C 49.7 125.4667 49.6 124.4667 49.6 123.4667 C 49.6 122.4667 49.7 121.5667 49.8 120.6667 C 50 118.8667 50.2 117.1667 50.5 115.6667 C 51.1 112.5667 51.6 110.0667 51.8 108.2667 C 52 106.4667 52.1 105.4667 52.1 105.4667 C 52.1 105.4667 52.1 105.6667 52.1 106.1667 C 52.1 106.6667 52 107.3667 52 108.2667 C 51.9 109.1667 51.8 110.2667 51.7 111.5667 C 51.5 112.7667 51.3 114.2667 51.1 115.7667 C 50.9 117.3667 50.8 118.9667 50.6 120.7667 C 50.4 122.5667 50.3 124.3667 50.7 126.2667 C 51 128.0667 51.7 129.9667 52.6 131.7667 C 53.5 133.5667 54.6 135.2667 55.7 137.0667 C 56.8 138.8667 57.9 140.6667 58.8 142.4667 C 59.7 144.2667 60.6 146.0667 61.4 147.8667 C 62.3 149.5667 63.1 151.2667 63.9 152.8667 C 64.3 153.6667 64.7 154.4667 65.1 155.1667 C 65.5 155.8667 65.9 156.5667 66.3 157.2667 C 67.1 158.6667 67.6 159.9667 67.9 161.2667 C 68.2 162.5667 68.1 163.7667 67.7 164.5667 C 67.4 165.3667 66.8 165.8667 66.4 166.1667 C 66 166.3667 65.7 166.4667 65.7 166.4667 C 65.7 166.4667 65.9 166.3667 66.4 166.1667 Z " id="ID0.7345215296372771" stroke-width="1" fill="#59402f" stroke="none"/></g><path d="M 56.2 165.6667 C 55.9 164.8667 55.6 163.6667 56.6 163.9667 C 57.6 164.2667 57.6 166.9667 57.4 167.4667 C 57.3 167.8667 56.4 166.4667 56.2 165.6667 Z " id="ID0.7181281433440745" fill="#6c5f57" stroke-width="1" stroke="none"/><path d="M 61.8 167.0667 C 61.5 166.2667 61.2 165.0667 62.2 165.3667 C 63.2 165.6667 63.2 168.3667 63 168.8667 C 62.9 169.2667 62 167.8667 61.8 167.0667 Z " id="ID0.618369004689157" fill="#6c5f57" stroke-width="1" stroke="none"/><path d="M 65.7 165.6667 C 65.4 164.8667 65.1 163.6667 66.1 163.9667 C 67.1 164.2667 67.1 166.9667 66.9 167.4667 C 66.8 167.8667 66 166.4667 65.7 165.6667 Z " id="ID0.9127552644349635" fill="#6c5f57" stroke-width="1" stroke="none"/></g><path d="M 34.4 74.6667 C 33.9 74.7667 33.2 74.8667 32.4 74.9667 C 32 75.0667 31.5 75.1667 31.1 75.2667 C 30.6 75.3667 30.2 75.5667 29.7 75.6667 C 29.2 75.8667 28.7 76.0667 28.2 76.2667 C 27.7 76.4667 27.3 76.6667 26.8 76.9667 C 26.3 77.1667 25.8 77.4667 25.4 77.7667 C 25 77.9667 24.6 78.3667 24.2 78.6667 C 23.8 78.9667 23.4 79.3667 23.1 79.6667 C 22.7 79.9667 22.5 80.3667 22.2 80.6667 C 21.9 81.0667 21.7 81.2667 21.5 81.5667 C 21.3 81.8667 21.1 82.0667 21 82.2667 C 20.8 82.6667 20.6 82.8667 20.6 82.8667 C 20.6 82.8667 20.7 82.5667 20.9 82.1667 C 21 81.9667 21.2 81.6667 21.3 81.3667 C 21.4 80.9667 21.7 80.6667 21.9 80.3667 C 22.1 79.9667 22.4 79.5667 22.7 79.2667 C 23 78.8667 23.3 78.4667 23.7 78.1667 C 24.1 77.8667 24.4 77.4667 24.9 77.1667 C 25.3 76.8667 25.8 76.5667 26.3 76.2667 C 26.8 75.9667 27.3 75.7667 27.8 75.5667 C 28.3 75.3667 28.8 75.2667 29.3 75.0667 C 29.8 74.9667 30.3 74.8667 30.8 74.7667 C 31.2 74.6667 31.7 74.5667 32.1 74.5667 C 32.9 74.4667 33.6 74.5667 34.1 74.5667 C 34.6 74.5667 34.9 74.6667 34.9 74.6667 C 34.9 74.6667 34.6 74.6667 34.4 74.6667 Z " id="Shape" fill="#59402f" stroke-width="1" stroke="none"/></g><g data-paper-data="{&quot;origPos&quot;:null}" id="Group"><g id="ID0.6102252728305757"><path d="M 49.6 71.5 C 38.7 70.6 37.8 64.8 37.8 64.8 L 37.5 67.9 C 31.3 63.5 31.3 57 31.3 57 L 30.1 59.4 C 27.7 54.9 28.9 49.8 28.9 49.8 L 27.5 52.2 C 25.8 45.1 28.2 43 28.2 43 C 27.4 44.3 25 44.5 25 44.5 C 27.9 41.4 30.3 32.7 30.3 32.7 " id="Shape" fill="#8d674a" stroke-width="1" stroke="none"/><path d="M 101.2 32.7 C 101.2 32.7 103.6 41.4 106.5 44.5 C 106.5 44.5 104.1 44.3 103.3 43 C 103.3 43 105.7 45.1 104 52.2 L 102.6 49.8 C 102.6 49.8 103.8 54.9 101.4 59.4 L 100.2 57 C 100.2 57 100.2 63.5 94 67.9 L 93.7 64.8 C 93.7 64.8 92.8 70.6 81.9 71.5 " id="Shape" fill="#8d674a" stroke-width="1" stroke="none"/><path d="M 48.2 71.5 C 37.1 67.9 20.3 53.3 32.5 25.8 C 44.7 -1.7 70.7 1.8 82.5 7.2 C 91.4 11.2 99.3 26.5 101.8 34.7 C 104.3 42.9 102.9 60.7 92.9 67.5 C 81.5 75.2 59.3 75.1 48.2 71.5 Z " id="Shape" fill="#8d674a" stroke-width="1" stroke="none"/><path d="M 55.131 32.533 C 55.421 32.985 55.6 33.61 55.6 34.3 C 55.6 34.99 55.421 35.615 55.131 36.067 C 54.841 36.52 54.441 36.8 54 36.8 C 53.559 36.8 53.159 36.52 52.869 36.067 C 52.579 35.615 52.4 34.99 52.4 34.3 C 52.4 33.61 52.579 32.985 52.869 32.533 C 53.159 32.08 53.559 31.8 54 31.8 C 54.441 31.8 54.841 32.08 55.131 32.533 Z " id="Oval" fill="#332010" stroke-width="1" stroke="none"/><path d="M 79.431 32.533 C 79.721 32.985 79.9 33.61 79.9 34.3 C 79.9 34.99 79.721 35.615 79.431 36.067 C 79.141 36.52 78.741 36.8 78.3 36.8 C 77.859 36.8 77.459 36.52 77.169 36.067 C 76.879 35.615 76.7 34.99 76.7 34.3 C 76.7 33.61 76.879 32.985 77.169 32.533 C 77.459 32.08 77.859 31.8 78.3 31.8 C 78.741 31.8 79.141 32.08 79.431 32.533 Z " id="Oval" fill="#332010" stroke-width="1" stroke="none"/><path d="M 76.1 63.9 C 76.1 63.9 70 71.5 63.8 64.2 C 63.8 64.2 57.4 63.3 57.4 57.2 C 57.4 51.1 60.6 34.4 68.5 34.7 C 73.5 34.9 80.8 48.1 80.8 56 C 80.8 63.9 76.1 63.9 76.1 63.9 Z " id="Shape" fill="#9e7b5c" stroke-width="1" stroke="none"/><path d="M 70.2 57.6 C 70.2 58.1 70.3 58.8 70.3 59.5 C 70.3 60.2 70.3 60.9 70.2 61.4 C 70.1 62 70 62.3 70 62.3 C 70 62.3 69.9 61.9 69.8 61.4 C 69.8 60.9 69.7 60.2 69.7 59.5 C 69.7 58.8 69.7 58.1 69.8 57.6 C 69.9 57 70 56.7 70 56.7 C 70 56.7 70.1 57 70.2 57.6 Z " id="Shape" fill="#59402f" stroke-width="1" stroke="none"/><path d="M 72.9 62.6 C 72.1 62.5 71 62.4 69.9 62.4 C 68.8 62.4 67.7 62.5 66.9 62.6 C 66.5 62.7 66.1 62.7 65.9 62.8 C 65.6 62.9 65.5 62.9 65.5 62.9 C 65.5 62.9 65.6 62.8 65.8 62.7 C 66.1 62.6 66.4 62.4 66.8 62.3 C 67.2 62.2 67.7 62.1 68.2 62 C 68.7 61.9 69.3 61.9 69.9 61.9 C 70.5 62 71.1 62 71.6 62.1 C 72.1 62.2 72.6 62.3 73 62.4 C 73.8 62.6 74.3 62.9 74.3 62.9 C 74.3 62.9 73.7 62.8 72.9 62.6 Z " id="Shape" fill="#59402f" stroke-width="1" stroke="none"/><path d="M 75.7 53.4 C 75.7 54.4 74.5 55.7 73.6 55.7 C 72.7 55.7 72.4 58.1 70.8 58.2 C 68 58.3 68 56.5 67.2 55.8 C 66.3 55.1 63.7 55.7 64 53.3 C 64.3 50.9 67.6 50.6 69.8 50.5 C 74.1 50.3 75.6 52.5 75.7 53.4 Z " id="Shape" fill="#332721" stroke-width="1" stroke="none"/><path d="M 64.4 33.2 C 64.6 33.1 64.8 32.9 65.1 32.8 C 65.4 32.7 65.8 32.6 66.2 32.5 C 66.6 32.4 67.1 32.4 67.5 32.4 C 68.4 32.4 69.3 32.6 69.9 32.8 C 70.5 33 70.9 33.2 70.9 33.2 C 70.9 33.2 70.5 33.2 69.8 33.2 C 69.2 33.1 68.3 33.1 67.5 33.1 C 66.6 33.1 65.8 33.2 65.2 33.3 C 64.9 33.4 64.6 33.4 64.4 33.5 C 64.2 33.6 64.1 33.6 64.1 33.6 C 64.1 33.6 64.2 33.5 64.4 33.2 Z " id="Shape" fill="#59402f" stroke-width="1" stroke="none"/><path d="M 69.5 31.8 C 69 31.8 68.5 31.8 67.9 31.8 C 67.3 31.8 66.7 31.8 66.3 31.8 C 66.1 31.8 65.9 31.8 65.8 31.8 C 65.7 31.8 65.6 31.8 65.6 31.8 C 65.6 31.8 65.9 31.6 66.3 31.4 C 66.7 31.2 67.3 31.1 67.9 31.1 C 68.5 31.1 69.1 31.2 69.5 31.3 C 69.9 31.4 70.2 31.6 70.2 31.6 C 70.2 31.6 69.9 31.6 69.5 31.8 Z " id="Shape" fill="#59402f" stroke-width="1" stroke="none"/><path d="M 39.1 48 C 39.1 49.3 39.2 50.5 39.3 51.4 C 39.3 51.8 39.4 52.2 39.4 52.5 C 39.4 52.7 39.4 52.9 39.4 52.9 C 39.4 52.9 39.3 52.8 39.2 52.5 C 39.1 52.2 38.9 51.9 38.8 51.4 C 38.7 51.2 38.6 51 38.6 50.7 C 38.6 50.5 38.5 50.2 38.5 49.9 C 38.5 49.6 38.4 49.3 38.4 49 C 38.4 48.7 38.4 48.4 38.4 48.1 C 38.4 46.9 38.6 45.6 38.8 44.7 C 39 43.8 39.3 43.2 39.3 43.2 C 39.3 43.2 39 45.7 39.1 48 Z " id="Shape" fill="#59402f" stroke-width="1" stroke="none"/><path d="M 44.1 59 C 44.3 59.3 44.5 59.7 44.8 60.1 C 45.1 60.5 45.4 60.9 45.7 61.3 C 46.4 62.1 47.1 62.9 47.7 63.4 C 48 63.6 48.2 63.9 48.4 64 C 48.6 64.2 48.7 64.3 48.7 64.3 C 48.7 64.3 48.6 64.3 48.4 64.2 C 48.2 64.1 47.8 63.9 47.5 63.7 C 47.2 63.5 46.8 63.2 46.4 62.9 C 46 62.5 45.6 62.1 45.3 61.7 C 44.6 60.9 44.1 59.9 43.8 59.1 C 43.5 58.3 43.5 57.8 43.5 57.8 C 43.5 57.8 43.7 58.2 44.1 59 Z " id="Shape" fill="#59402f" stroke-width="1" stroke="none"/><path d="M 91.5 42.5 C 91.8 43.1 92 43.9 92.1 44.7 C 92.2 45.1 92.2 45.5 92.2 45.9 C 92.2 46.3 92.2 46.7 92.1 47 C 92 47.6 91.8 48 91.8 48 C 91.8 48 91.8 47.9 91.8 47.7 C 91.8 47.6 91.7 47.3 91.7 47 C 91.7 46.4 91.6 45.6 91.5 44.8 C 91.4 44 91.3 43.2 91.2 42.6 C 91.1 42 91.1 41.6 91.1 41.6 C 91.1 41.6 91.4 42 91.5 42.5 Z " id="Shape" fill="#59402f" stroke-width="1" stroke="none"/><g id="Shape"><path d="M 40.6 53.7 C 40.7 54 40.9 54.3 40.9 54.6 C 40.9 54.9 40.9 55.3 40.9 55.5 C 40.9 55.7 40.8 55.9 40.8 55.9 C 40.8 55.9 40.7 55.7 40.6 55.5 C 40.5 55.2 40.3 54.9 40.3 54.6 C 40.3 54.3 40.3 53.9 40.3 53.7 C 40.3 53.5 40.4 53.3 40.4 53.3 C 40.4 53.3 40.5 53.4 40.6 53.7 Z " id="ID0.9332002229057252" stroke-width="1" fill="#59402f" stroke="none"/><path d="M 42.3 55.8 C 42.4 56 42.5 56.3 42.6 56.6 C 42.7 56.9 42.7 57.2 42.7 57.4 C 42.6 57.6 42.6 57.8 42.6 57.8 C 42.6 57.8 42.5 57.7 42.4 57.5 C 42.3 57.3 42.2 57 42.1 56.7 C 42 56.4 42 56.1 42 55.9 C 42.1 55.7 42.1 55.5 42.1 55.5 C 42.1 55.5 42.2 55.6 42.3 55.8 Z " id="ID0.3179587903432548" stroke-width="1" fill="#59402f" stroke="none"/><path d="M 91.2 48.8 C 91.3 49 91.4 49.3 91.5 49.6 C 91.6 49.9 91.6 50.2 91.6 50.4 C 91.5 50.6 91.5 50.8 91.5 50.8 C 91.5 50.8 91.4 50.7 91.3 50.5 C 91.2 50.3 91.1 50 91 49.7 C 90.9 49.4 90.9 49.1 90.9 48.9 C 91 48.7 91 48.5 91 48.5 C 91 48.5 91.1 48.6 91.2 48.8 Z " id="ID0.48881496489048004" stroke-width="1" fill="#59402f" stroke="none"/></g><path d="M 90.5 52.9 C 90.6 53.3 90.6 53.8 90.6 54.4 C 90.6 55 90.5 55.6 90.4 56.2 C 90.3 56.8 90.1 57.4 89.9 57.9 C 89.8 58.1 89.6 58.4 89.5 58.6 C 89.4 58.8 89.2 59 89.1 59.2 C 88.9 59.5 88.6 59.8 88.4 60 C 88.2 60.2 88.1 60.3 88.1 60.3 C 88.1 60.3 88.2 60.1 88.3 59.9 C 88.4 59.7 88.6 59.4 88.8 59 C 89.2 58.2 89.6 57.1 89.8 56 C 90 55.4 90 54.8 90.1 54.3 C 90.2 53.7 90.2 53.2 90.2 52.8 C 90.2 51.9 90.2 51.3 90.2 51.3 C 90.2 51.3 90.5 51.8 90.5 52.9 Z " id="Shape" fill="#59402f" stroke-width="1" stroke="none"/><g id="Shape"><path d="M 38.4 16.8 C 29.5 5.3 39.5 0 43.9 0.2 C 48.3 0.4 50.7 8.1 50.7 8.1 " id="ID0.32199281826615334" fill="#8d674a" stroke-width="1" stroke="none"/><path d="M 43.4 4.2 C 43.4 4.7 43.3 5.2 43.3 5.8 C 43.2 6.4 43.3 7 43.3 7.6 C 43.4 8.2 43.5 8.8 43.6 9.3 C 43.7 9.6 43.8 9.9 43.9 10.1 C 44 10.4 44.1 10.6 44.2 10.8 C 44.3 10.9 44.4 11.1 44.5 11.3 C 44.6 11.5 44.7 11.6 44.8 11.7 C 45 12 45.1 12.1 45.1 12.1 C 45.1 12.1 45 12 44.8 11.8 C 44.6 11.7 44.3 11.4 44 11 C 43.9 10.8 43.7 10.5 43.6 10.3 C 43.4 10.1 43.3 9.8 43.2 9.5 C 43 9.2 43 8.9 42.9 8.6 C 42.9 8.2 42.8 7.9 42.8 7.6 C 42.8 6.9 42.8 6.3 42.9 5.7 C 42.9 5.1 43.1 4.6 43.2 4.1 C 43.5 3.2 43.8 2.6 43.8 2.6 C 43.8 2.6 43.7 3.2 43.4 4.2 Z " id="ID0.8247555433772504" fill="#59402f" stroke-width="1" stroke="none"/><g id="ID0.34517507581040263"><path d="M 42.8 11.6 C 43 11.7 43.2 11.8 43.4 12 C 43.6 12.2 43.8 12.4 43.9 12.6 C 44 12.8 44 12.9 44 12.9 C 44 12.9 43.9 12.9 43.7 12.8 C 43.5 12.7 43.3 12.6 43.1 12.4 C 42.9 12.2 42.7 12 42.6 11.8 C 42.5 11.6 42.5 11.5 42.5 11.5 C 42.5 11.5 42.6 11.5 42.8 11.6 Z " id="ID0.524186173453927" stroke-width="1" fill="#59402f" stroke="none"/><path d="M 42.2 13.2 C 42.5 13.4 42.6 13.9 42.6 13.9 C 42.5 13.9 42.1 13.9 41.8 13.6 C 41.5 13.4 41.4 12.9 41.4 12.9 C 41.4 12.9 41.9 12.9 42.2 13.2 Z " id="ID0.3222102946601808" stroke-width="1" fill="#59402f" stroke="none"/></g></g><g id="Shape"><path d="M 79.5 8.1 C 79.5 8.1 81.9 0.4 86.3 0.2 C 90.7 0 100.7 5.3 91.8 16.8 " id="ID0.2357053104788065" fill="#8d674a" stroke-width="1" stroke="none"/><path d="M 86.8 4.1 C 86.9 4.6 87 5.1 87.1 5.7 C 87.2 6.3 87.2 7 87.2 7.6 C 87.2 8 87.1 8.3 87.1 8.6 C 87 8.9 86.9 9.2 86.8 9.5 C 86.6 9.8 86.6 10.1 86.4 10.3 C 86.3 10.6 86.2 10.8 86 11 C 85.7 11.4 85.4 11.6 85.2 11.8 C 85 12 84.9 12.1 84.9 12.1 C 84.9 12.1 85 11.9 85.2 11.7 C 85.3 11.6 85.4 11.5 85.5 11.3 C 85.6 11.2 85.7 11 85.8 10.8 C 85.9 10.6 86 10.3 86.1 10.1 C 86.3 9.8 86.3 9.6 86.4 9.3 C 86.6 8.8 86.7 8.2 86.7 7.6 C 86.7 7 86.7 6.4 86.7 5.8 C 86.7 5.2 86.6 4.7 86.6 4.2 C 86.5 3.2 86.4 2.6 86.4 2.6 C 86.4 2.6 86.7 3.2 86.8 4.1 Z " id="ID0.164222395978868" fill="#59402f" stroke-width="1" stroke="none"/><g id="ID0.5028454521670938"><path d="M 87.6 11.8 C 87.5 12 87.3 12.2 87.1 12.4 C 86.9 12.6 86.7 12.7 86.5 12.8 C 86.3 12.9 86.2 12.9 86.2 12.9 C 86.2 12.9 86.2 12.8 86.3 12.6 C 86.4 12.4 86.6 12.2 86.8 12 C 87 11.8 87.2 11.7 87.4 11.6 C 87.6 11.5 87.7 11.5 87.7 11.5 C 87.7 11.5 87.7 11.7 87.6 11.8 Z " id="ID0.17573782987892628" stroke-width="1" fill="#59402f" stroke="none"/><path d="M 88.4 13.6 C 88.1 13.8 87.6 13.9 87.6 13.9 C 87.6 13.9 87.7 13.4 88 13.2 C 88.3 13 88.8 12.9 88.8 12.9 C 88.8 12.9 88.6 13.3 88.4 13.6 Z " id="ID0.3960000080987811" stroke-width="1" fill="#59402f" stroke="none"/></g></g><path d="M 37.3 17.3 C 36.7 18 36 19 35.3 20.2 C 35 20.9 34.6 21.6 34.2 22.3 C 33.8 23.1 33.5 23.9 33.1 24.7 C 32.8 25.5 32.4 26.4 32.1 27.3 C 31.8 28.2 31.5 29.2 31.2 30.1 C 31 31 30.7 32 30.4 32.9 C 30.1 33.8 29.8 34.7 29.5 35.6 C 28.9 37.4 28.3 39 27.7 40.3 C 27.1 41.6 26.5 42.7 26 43.4 C 25.7 43.7 25.5 44 25.3 44.1 C 25.1 44.3 25 44.3 25 44.3 C 25 44.3 25.1 44.3 25.3 44.1 C 25.5 43.9 25.7 43.7 25.9 43.3 C 26.4 42.6 26.9 41.5 27.4 40.1 C 27.9 38.8 28.4 37.1 29 35.4 C 29.3 34.5 29.5 33.6 29.8 32.7 C 30.1 31.8 30.3 30.8 30.6 29.9 C 30.8 28.9 31.2 28 31.5 27.1 C 31.9 26.2 32.2 25.3 32.6 24.5 C 33 23.6 33.4 22.8 33.8 22.1 C 34.2 21.4 34.6 20.7 35 20.1 C 35.8 18.9 36.6 17.9 37.2 17.3 C 37.8 16.7 38.2 16.4 38.2 16.4 C 38.2 16.4 37.9 16.7 37.3 17.3 Z " id="Shape" fill="#59402f" stroke-width="1" stroke="none"/><path d="M 27.6 44.9 C 27.5 45.7 27.3 46.8 27.3 47.9 C 27.3 48.4 27.3 49 27.3 49.5 C 27.3 50 27.4 50.5 27.4 50.9 C 27.4 51.3 27.5 51.7 27.5 51.9 C 27.5 52.2 27.5 52.3 27.5 52.3 C 27.5 52.3 27.5 52.1 27.4 51.9 C 27.4 51.6 27.2 51.3 27.1 50.9 C 27 50.5 26.9 50 26.8 49.5 C 26.7 48.9 26.7 48.4 26.7 47.8 C 26.7 47.2 26.8 46.6 26.9 46.1 C 27 45.6 27.1 45.1 27.3 44.7 C 27.7 43.9 28 43.4 28 43.4 C 28 43.4 27.8 44 27.6 44.9 Z " id="Shape" fill="#59402f" stroke-width="1" stroke="none"/><path d="M 29.1 51.3 C 29.1 52.2 29.2 53.3 29.3 54.5 C 29.4 55.7 29.5 56.9 29.7 57.7 C 29.8 58.1 29.9 58.5 30 58.7 C 30.1 59 30.1 59.1 30.1 59.1 C 30.1 59.1 30 59 29.9 58.8 C 29.8 58.5 29.6 58.2 29.4 57.8 C 29.1 57 28.8 55.8 28.7 54.6 C 28.6 53.4 28.6 52.2 28.7 51.3 C 28.9 50.4 29 49.8 29 49.8 C 29 49.8 29.1 50.4 29.1 51.3 Z " id="Shape" fill="#59402f" stroke-width="1" stroke="none"/><path d="M 32.1 59 C 32.3 59.6 32.5 60.2 32.8 60.9 C 32.9 61.2 33.1 61.5 33.2 61.9 C 33.4 62.3 33.5 62.6 33.7 63 C 34 63.7 34.4 64.4 34.8 65 C 35 65.2 35.2 65.5 35.4 65.8 C 35.6 66 35.8 66.3 36 66.5 C 36.2 66.7 36.4 66.9 36.6 67.1 C 36.8 67.3 37 67.4 37.1 67.5 C 37.3 67.7 37.5 67.8 37.5 67.8 C 37.5 67.8 37.3 67.7 37 67.6 C 36.8 67.5 36.6 67.4 36.4 67.3 C 36.2 67.1 35.9 67 35.7 66.8 C 35.5 66.6 35.3 66.3 35 66.1 C 34.8 65.9 34.5 65.6 34.3 65.3 C 34 65 33.8 64.6 33.6 64.3 C 33.4 63.9 33.2 63.6 33 63.2 C 32.6 62.5 32.3 61.7 32.1 61 C 31.9 60.3 31.7 59.6 31.6 59 C 31.4 57.8 31.4 57 31.4 57 C 31.4 57 31.6 57.8 32.1 59 Z " id="Shape" fill="#59402f" stroke-width="1" stroke="none"/><path d="M 92.8 17.2 C 93.4 17.8 94.2 18.8 95.1 20 C 95.6 20.6 96 21.3 96.5 22 C 97 22.7 97.4 23.5 97.9 24.3 C 98.3 25.1 98.8 26 99.2 26.9 C 99.6 27.8 100 28.8 100.4 29.7 C 101.2 31.5 101.8 33.4 102.4 35.2 C 103 36.9 103.6 38.6 104.1 40 C 104.6 41.4 105.1 42.5 105.5 43.3 C 105.7 43.7 105.9 43.9 106.1 44.1 C 106.3 44.3 106.4 44.3 106.4 44.3 C 106.4 44.3 106.3 44.2 106.1 44.1 C 105.9 43.9 105.6 43.7 105.4 43.3 C 105 42.5 104.4 41.4 103.8 40 C 103.2 38.6 102.5 37 101.9 35.2 C 101.3 33.5 100.6 31.6 99.9 29.7 C 99.5 28.8 99.1 27.9 98.7 27 C 98.4 26.1 97.9 25.2 97.5 24.4 C 96.7 22.8 95.8 21.3 95 20 C 94.2 18.8 93.5 17.8 92.9 17.1 C 92.3 16.5 92 16.1 92 16.1 C 92 16.1 92.4 16.4 92.8 17.2 Z " id="Shape" fill="#59402f" stroke-width="1" stroke="none"/><path d="M 104.3 44.6 C 104.4 45 104.6 45.5 104.7 46 C 104.8 46.6 104.9 47.1 104.9 47.7 C 104.9 48.3 104.9 48.9 104.8 49.4 C 104.7 49.9 104.6 50.4 104.5 50.8 C 104.4 51.2 104.3 51.6 104.2 51.8 C 104.2 52.1 104.1 52.2 104.1 52.2 C 104.1 52.2 104.1 52 104.1 51.8 C 104.1 51.6 104.2 51.2 104.2 50.8 C 104.2 50.4 104.3 49.9 104.3 49.4 C 104.3 48.9 104.3 48.3 104.3 47.8 C 104.3 46.7 104.1 45.6 104 44.8 C 103.9 43.9 103.7 43.4 103.7 43.4 C 103.7 43.4 104 43.9 104.3 44.6 Z " id="Shape" fill="#59402f" stroke-width="1" stroke="none"/><path d="M 102.9 51.3 C 103 52.2 103 53.4 102.9 54.6 C 102.8 55.8 102.6 57 102.2 57.8 C 102 58.3 101.9 58.6 101.7 58.8 C 101.6 59 101.5 59.1 101.5 59.1 C 101.5 59.1 101.5 58.9 101.6 58.7 C 101.7 58.5 101.8 58.1 101.9 57.7 C 102.1 56.8 102.2 55.7 102.3 54.5 C 102.4 53.3 102.4 52.2 102.5 51.3 C 102.6 50.4 102.6 49.8 102.6 49.8 C 102.6 49.8 102.8 50.4 102.9 51.3 Z " id="Shape" fill="#59402f" stroke-width="1" stroke="none"/><path d="M 100.2 58.9 C 100.1 59.5 99.9 60.2 99.7 60.9 C 99.5 61.6 99.1 62.4 98.8 63.1 C 98.6 63.5 98.4 63.9 98.2 64.2 C 97.9 64.6 97.7 64.9 97.5 65.2 C 97.3 65.5 97.1 65.8 96.8 66 C 96.6 66.3 96.3 66.5 96.1 66.7 C 95.8 66.9 95.6 67.1 95.4 67.2 C 95.2 67.3 95 67.4 94.8 67.5 C 94.5 67.6 94.3 67.7 94.3 67.7 C 94.3 67.7 94.4 67.6 94.7 67.4 C 94.9 67.3 95 67.2 95.2 67 C 95.4 66.8 95.6 66.6 95.8 66.4 C 96 66.2 96.2 65.9 96.4 65.7 C 96.6 65.5 96.8 65.2 97 64.9 C 97.4 64.3 97.8 63.6 98.1 62.9 C 98.3 62.5 98.5 62.2 98.6 61.8 C 98.7 61.5 98.9 61.1 99 60.8 C 99.3 60.1 99.5 59.5 99.7 58.9 C 100.1 57.8 100.3 57 100.3 57 C 100.3 57 100.3 57.8 100.2 58.9 Z " id="Shape" fill="#59402f" stroke-width="1" stroke="none"/><path d="M 49.4 6.2 C 49.1 5.4 48.7 4.6 48.1 3.7 C 47.5 2.8 46.8 2 45.9 1.4 C 45.5 1.1 45 0.9 44.5 0.7 C 44 0.6 43.5 0.5 43 0.5 C 42.5 0.5 42.1 0.6 41.6 0.7 C 41.1 0.8 40.7 0.9 40.3 1.1 C 39.6 1.4 38.9 1.7 38.5 2 C 38 2.3 37.8 2.4 37.8 2.4 C 37.8 2.4 38 2.2 38.4 1.9 C 38.6 1.8 38.8 1.6 39.1 1.4 C 39.4 1.2 39.7 1 40.1 0.8 C 40.5 0.6 40.9 0.4 41.4 0.3 C 41.9 0.1 42.4 0 43 0 C 43.6 0 44.1 0.1 44.7 0.2 C 45.3 0.3 45.8 0.6 46.3 0.9 C 47.3 1.6 48 2.5 48.6 3.4 C 49.2 4.4 49.5 5.3 49.8 6.1 C 50.3 7.8 50.4 8.9 50.4 8.9 C 50.4 8.9 50.1 7.8 49.4 6.2 Z " id="Shape" fill="#59402f" stroke-width="1" stroke="none"/><path d="M 92 2.1 C 91.5 1.8 90.9 1.5 90.1 1.2 C 89.9 1.1 89.7 1.1 89.5 1 C 89.3 0.9 89 0.9 88.8 0.8 C 88.6 0.7 88.3 0.7 88.1 0.7 C 87.8 0.6 87.6 0.6 87.3 0.6 C 87 0.6 86.8 0.6 86.5 0.6 C 86.2 0.7 86 0.7 85.7 0.8 C 85.4 0.9 85.1 1 84.9 1.1 C 84.7 1.3 84.4 1.3 84.2 1.5 C 83.7 1.8 83.2 2.1 82.9 2.5 C 82.6 2.9 82.2 3.2 81.9 3.7 C 81.7 4.2 81.3 4.6 81.1 5 C 80.9 5.4 80.7 5.8 80.5 6.2 C 80.3 6.6 80.1 7 80 7.3 C 79.8 7.6 79.7 7.9 79.6 8.1 C 79.4 8.5 79.3 8.8 79.3 8.8 C 79.3 8.8 79.4 8.5 79.5 8 C 79.5 7.7 79.6 7.4 79.7 7.1 C 79.8 6.8 79.9 6.4 80.1 6 C 80.3 5.6 80.5 5.2 80.7 4.7 C 80.9 4.2 81.2 3.8 81.5 3.3 C 81.8 2.8 82.2 2.4 82.6 2 C 83 1.6 83.5 1.3 84 0.9 C 84.2 0.7 84.5 0.6 84.8 0.5 C 85 0.4 85.3 0.2 85.6 0.2 C 85.9 0.1 86.2 0 86.5 0 C 86.8 0 87.1 0 87.4 0 C 87.7 0 87.9 0.1 88.2 0.1 C 88.5 0.2 88.8 0.2 89 0.3 C 89.2 0.4 89.5 0.4 89.7 0.5 C 89.9 0.6 90.1 0.7 90.3 0.8 C 90.7 1 91 1.2 91.3 1.4 C 91.5 1.6 91.8 1.7 92 1.9 C 92.4 2.2 92.6 2.4 92.6 2.4 C 92.6 2.4 92.4 2.2 92 2.1 Z " id="Shape" fill="#59402f" stroke-width="1" stroke="none"/><path d="M 79.1 5.8 C 78.3 5.5 77.1 5.2 75.7 4.9 C 75 4.8 74.2 4.6 73.4 4.5 C 72.6 4.3 71.7 4.2 70.8 4.1 C 69.9 4 68.9 3.9 68 3.8 C 67 3.7 66.1 3.7 65.1 3.7 L 63.7 3.7 C 63.3 3.7 62.8 3.8 62.3 3.8 C 61.8 3.8 61.4 3.9 60.9 3.9 C 60.4 4 59.9 4 59.5 4.1 C 59.1 4.2 58.6 4.2 58.2 4.3 C 57.7 4.4 57.3 4.5 56.9 4.6 C 56.5 4.6 56.1 4.7 55.7 4.8 C 55.3 4.9 54.9 5 54.6 5.1 C 53.9 5.3 53.3 5.5 52.7 5.7 C 52.2 5.9 51.7 6 51.3 6.2 C 50.5 6.5 50 6.7 50 6.7 C 50 6.7 50.4 6.5 51.2 6.1 C 51.6 5.9 52.1 5.7 52.6 5.4 C 53.2 5.2 53.8 4.9 54.5 4.7 C 54.9 4.5 55.2 4.4 55.6 4.3 C 56 4.2 56.4 4.1 56.8 4 C 57.3 3.9 57.7 3.8 58.1 3.7 C 58.5 3.6 58.9 3.6 59.4 3.5 C 59.9 3.4 60.3 3.4 60.8 3.3 C 61.2 3.3 61.7 3.2 62.2 3.2 C 62.7 3.2 63.2 3.1 63.7 3.1 L 65.2 3.1 C 66.2 3.1 67.1 3.2 68.1 3.2 C 69 3.3 70 3.4 70.9 3.5 C 71.8 3.7 72.7 3.8 73.5 4 C 74.3 4.2 75.1 4.4 75.8 4.6 C 77.3 5 78.4 5.4 79.2 5.7 C 80 6 80.4 6.2 80.4 6.2 C 80.4 6.2 79.9 6 79.1 5.8 Z " id="Shape" fill="#59402f" stroke-width="1" stroke="none"/><path d="M 72.3 66.9 C 71.6 67.3 70.6 67.6 69.6 67.6 C 69.1 67.7 68.6 67.6 68.1 67.5 C 67.8 67.5 67.6 67.4 67.4 67.3 C 67.2 67.2 67.1 67.1 66.9 67 C 66.6 66.8 66.3 66.6 66.2 66.4 C 66.1 66.2 66 66.1 66 66.1 C 66 66.1 66.1 66.2 66.3 66.3 C 66.5 66.4 66.8 66.6 67.1 66.7 C 67.2 66.8 67.4 66.8 67.6 66.9 C 67.8 66.9 68 66.9 68.2 67 C 68.6 67.1 69 67.1 69.5 67.1 C 70 67.1 70.5 67.1 70.9 67 C 71.3 67 71.7 66.9 72.1 66.8 C 72.8 66.6 73.3 66.5 73.3 66.5 C 73.3 66.5 72.9 66.8 72.3 66.9 Z " id="Shape" fill="#59402f" stroke-width="1" stroke="none"/><path d="M 54.6 25.7 C 56 25.7 57.1 26.6 57.1 27.6 C 57.1 28.7 55.9 29.5 54.6 29.5 C 53.3 29.5 50.2 29 50.2 28 C 50.2 27 53.2 25.7 54.6 25.7 Z " id="Shape" fill="#9e7b5c" stroke-width="1" stroke="none"/><path d="M 81.1 28 C 81.1 29 78 29.5 76.7 29.5 C 75.4 29.5 74.2 28.7 74.2 27.6 C 74.2 26.6 75.3 25.7 76.7 25.7 C 78.1 25.7 81.1 27 81.1 28 Z " id="Shape" fill="#9e7b5c" stroke-width="1" stroke="none"/></g><path d="M 89.9 69.7 C 89.1 70.2 88.2 70.7 87.1 71.1 C 86 71.5 84.9 72 83.7 72.3 C 83.1 72.5 82.5 72.6 81.9 72.7 C 81.3 72.8 80.7 72.9 80.1 73 C 79.5 73.1 78.9 73.1 78.4 73.2 C 77.9 73.3 77.4 73.3 76.9 73.3 C 76 73.3 75.2 73.2 74.7 73.2 C 74.2 73.1 73.9 73.1 73.9 73.1 C 73.9 73.1 74.2 73 74.7 73 C 75 72.9 75.3 72.9 75.7 72.9 C 76 72.9 76.4 72.8 76.9 72.8 C 77.4 72.7 77.9 72.7 78.4 72.6 C 78.9 72.5 79.4 72.4 80 72.3 C 80.5 72.2 81.1 72.2 81.7 72 C 82.2 71.8 82.8 71.7 83.4 71.5 C 84.6 71.2 85.7 70.8 86.8 70.4 C 87.9 70 88.9 69.6 89.7 69.2 C 91.3 68.4 92.4 67.8 92.4 67.8 C 92.4 67.8 91.5 68.5 89.9 69.7 Z " id="Shape" fill="#59402f" stroke-width="1" stroke="none"/></g></g></g></svg>